<!-- save this as e.g. src/assets/svg/speech‑blob.svg -->
<svg xmlns="http://www.w3.org/2000/svg" viewBox="0 0 300 300">
  <!-- wide, skinny woodcut blob -->
  <path fill="#fdbe3b" d="
    M10 100
    l 50 -30 q 30 -20 80 -20
    l 90 0 q 40 5 80 30
    l 40 40 q 20 20 30 40
    l 5 30 q -5 25 -30 40
    l -60 20 q -40 5 -90 0
    l -80 -20 q -40 -25 -50 -50
    l -5 -40 q 5 -30 30 -45
    l 70 -30 q 45 -15 80 -10
    l 50 10 q 40 15 60 40
    l 20 30 q 10 25 0 50
    l -20 40 q -20 40 -60 50
    l -90 20 q -60 5 -100 0
    l -70 -20 q -50 -30 -60 -60
    Z"/>
</svg>